<svg xmlns="http://www.w3.org/2000/svg" width="24" height="24" viewBox="0 0 24 24" fill="none"><rect width="24" height="24" rx="4" fill="#0B0B0B"/><path fill="#fff" fill-rule="evenodd" clip-rule="evenodd" d="M12 2.5c-5.24 0-9.5 4.26-9.5 9.5 0 4.2 2.72 7.76 6.49 9.02.47.09.64-.2.64-.45 0-.22-.01-.94-.01-1.71-2.36.43-2.97-.58-3.16-1.11-.11-.28-.6-1.11-1.02-1.33-.35-.19-.85-.66-.01-.67.79-.01 1.35.73 1.54 1.03.9 1.51 2.35 1.09 2.92.83.09-.65.35-1.09.64-1.34-2.09-.24-4.29-1.05-4.29-4.67 0-1.03.37-1.88.98-2.54-.1-.24-.43-1.22.09-2.54 0 0 .8-.26 2.62.97.76-.21 1.58-.31 2.39-.31.81 0 1.63.1 2.39.31 1.83-1.23 2.62-.97 2.62-.97.52 1.32.19 2.3.09 2.54.61.66.98 1.51.98 2.54 0 3.63-2.21 4.43-4.31 4.67.36.31.68.91.68 1.86 0 1.34-.01 2.42-.01 2.75 0 .25.17.55.65.45 3.76-1.26 6.48-4.82 6.48-9.02 0-5.24-4.26-9.5-9.5-9.5Z"/></svg>
